# xmcd CD database file
#
# Track frame offsets:
#	182
#	13722
#	31877
#	47067
#	63975
#	77132
#	94695
#	112567
#	128395
#	147362
#	164377
#
# Disc length: 2403 seconds
#
# Revision: 2
# Processed by: cddbd v1.4b41PL1 Copyright (c) Steve Scherf et al.
# Submitted via: Feurio! 1.50.2ß - http://www.feurio.com
#
DISCID=7e09610b
DTITLE=Jitka Vrbova - Co nevidat se sejdem
DYEAR=1900
DGENRE=
TTITLE0=Co nevidet se sejdem
TTITLE1=Az skonci  pristi tejden
TTITLE2=Kdyz capi krouzi
TTITLE3=Marion
TTITLE4=Zadny  vikend vecne netrva
TTITLE5=Vsem kdo byli spravny trampi
TTITLE6=Co Ty o tom vis
TTITLE7=Nad Mednikem
TTITLE8=Leto uz ma celtu sbalenou
TTITLE9=Udoli Oddechu
TTITLE10=Z Prahy az  na Onen svet
EXTD=
EXTT0=
EXTT1=
EXTT2=
EXTT3=
EXTT4=
EXTT5=
EXTT6=
EXTT7=
EXTT8=
EXTT9=
EXTT10=
PLAYORDER=
